<?xml version="1.0" encoding="UTF-8" standalone="no"?>
<!DOCTYPE svg PUBLIC "-//W3C//DTD SVG 1.1//EN" "http://www.w3.org/Graphics/SVG/1.1/DTD/svg11.dtd">
<svg width="100%" height="100%" viewBox="0 0 80 80" version="1.1" xmlns="http://www.w3.org/2000/svg"
     xmlns:xlink="http://www.w3.org/1999/xlink" xml:space="preserve"
     style="fill-rule:evenodd;clip-rule:evenodd;stroke-linecap:round;stroke-linejoin:round;stroke-miterlimit:10;">
    <g transform="matrix(0.0327111,0,0,0.0327111,40.4957,40.0169)">
        <g id="hibernate.svg" transform="matrix(1,0,0,1,-1198.5,-1250)">
            <g transform="matrix(13.0062,48.5399,-49.8589,13.3597,2230.23,-858.518)">
                <g>
                    <g>
                        <g id="color">
                            <g transform="matrix(0.8006,-0.5992,0.5992,0.8006,-8.979,22.6777)">
                                <circle cx="29.585" cy="24.831" r="11.166" style="fill:white;"/>
                            </g>
                            <path d="M20.717,13.253C17.578,15.605 15.54,19.036 14.98,22.92C14.421,26.802 15.408,30.671 17.758,33.812C22.611,40.295 31.834,41.622 38.318,36.77C44.801,31.919 46.129,22.697 41.277,16.211C38.926,13.071 35.493,11.033 31.61,10.475C27.727,9.916 23.859,10.902 20.717,13.253ZM38.193,18.388C40.475,21.437 40.889,25.312 39.637,28.636C38.94,30.488 37.725,32.167 36.027,33.438C31.281,36.99 24.529,36.018 20.978,31.272C19.257,28.973 18.534,26.141 18.944,23.299C19.354,20.456 20.843,17.943 23.144,16.222C25.442,14.501 28.274,13.779 31.117,14.188C33.959,14.597 36.472,16.089 38.193,18.388Z"
                                  style="fill:white;fill-rule:nonzero;"/>
                            <g transform="matrix(1,0,0,1,-2.48485,-3.42424)">
                                <path d="M39,42L49,56C49,56 52,60 54,58C56,56 54,53 54,53L43,39L39,42Z"
                                      style="fill:rgb(63,116,176);fill-rule:nonzero;"/>
                            </g>
                        </g>
                        <g transform="matrix(0.8006,-0.5992,0.5992,0.8006,-8.979,22.6778)">
                            <g id="line">
                                <g>
                                    <circle cx="29.585" cy="24.831" r="14.637"
                                            style="fill:none;stroke:rgb(63,116,176);stroke-width:2px;"/>
                                </g>
                            </g>
                        </g>
                    </g>
                </g>
            </g>
            <g transform="matrix(0.397031,0,0,0.397031,897.453,398.287)">
                <path d="M1438.87,1675.4L1430.14,1701.22L1890.22,2481.57L1916.26,2500L2397,1668.73L1916.27,834.111L1438.87,1675.4ZM470.72,2.848L0,834.12L489.082,1675.4L954.793,834.111L953.538,800.122L492.181,19.758L470.72,2.848Z"
                      style="fill:rgb(89,102,108);fill-rule:nonzero;"/>
                <path d="M470.72,2.848L954.802,834.12L1916.26,834.12L1428.85,2.848L470.72,2.848ZM489.082,1675.4L963.145,2500L1916.26,2500L1438.87,1675.4L489.082,1675.4Z"
                      style="fill:rgb(188,174,121);fill-rule:nonzero;"/>
            </g>
        </g>
    </g>
</svg>
